<svg id="Layer_1" data-name="Layer 1" xmlns="http://www.w3.org/2000/svg" viewBox="0 0 512 512"><defs><style>.cls-1{fill:#50c878;}.cls-2{fill:#fff;}</style></defs><title>logo</title><rect class="cls-1" width="512" height="512" rx="151.5" ry="151.5"/><path class="cls-2" d="M205.55,168.6a100,100,0,0,0,100,173.16l86.58-50-2.68-44.63-103.89,60a60,60,0,0,1-60-103.89l155.84-90-2.68-44.63Z"/><path class="cls-2" d="M212.25,280.17a47.09,47.09,0,0,0,13.82,15.11l160.67-92.76-2.68-44.63-178,102.76A47.09,47.09,0,0,0,212.25,280.17Z"/><path class="cls-2" d="M205.78,353.18L145.43,388A60.07,60.07,0,0,1,172,326.65a108.7,108.7,0,0,1-20-34.66,99.83,99.83,0,0,0-34.12,135.07,98.44,98.44,0,0,0,11.76,16.3l136.36-78.73A110.65,110.65,0,0,1,205.78,353.18Z"/></svg>